G04*
G04 #@! TF.GenerationSoftware,Altium Limited,Altium Designer,18.0.11 (651)*
G04*
G04 Layer_Physical_Order=2*
G04 Layer_Color=16711680*
%FSLAX25Y25*%
%MOIN*%
G70*
G01*
G75*
%ADD12C,0.01000*%
%ADD28C,0.05512*%
%ADD29O,0.03937X0.07874*%
%ADD30O,0.03937X0.07874*%
%ADD31R,0.05906X0.05906*%
%ADD32C,0.05906*%
%ADD33C,0.05315*%
%ADD34R,0.05315X0.05315*%
%ADD35C,0.04724*%
%ADD36C,0.07000*%
%ADD37C,0.08000*%
%ADD38C,0.05000*%
G36*
X604000Y738500D02*
X636500Y726500D01*
Y676500D01*
X602519Y663450D01*
X571500Y651500D01*
X540960Y656770D01*
X426500Y676500D01*
Y726500D01*
X571500Y751495D01*
X604000Y738500D01*
D02*
G37*
%LPC*%
G36*
X493000Y727723D02*
Y724500D01*
X496222D01*
X496159Y724980D01*
X495781Y725894D01*
X495179Y726679D01*
X494394Y727281D01*
X493480Y727659D01*
X493000Y727723D01*
D02*
G37*
G36*
X492000D02*
X491519Y727659D01*
X490606Y727281D01*
X489821Y726679D01*
X489219Y725894D01*
X488841Y724980D01*
X488777Y724500D01*
X492000D01*
Y727723D01*
D02*
G37*
G36*
X600500Y728288D02*
X599519Y728159D01*
X598606Y727781D01*
X597821Y727179D01*
X597219Y726394D01*
X596841Y725481D01*
X596712Y724500D01*
X596841Y723520D01*
X597219Y722606D01*
X597821Y721821D01*
X598606Y721219D01*
X599519Y720841D01*
X600500Y720712D01*
X601480Y720841D01*
X602394Y721219D01*
X603179Y721821D01*
X603781Y722606D01*
X604159Y723520D01*
X604288Y724500D01*
X604159Y725481D01*
X603781Y726394D01*
X603179Y727179D01*
X602394Y727781D01*
X601480Y728159D01*
X600500Y728288D01*
D02*
G37*
G36*
X570500D02*
X569520Y728159D01*
X568606Y727781D01*
X567821Y727179D01*
X567219Y726394D01*
X566841Y725481D01*
X566712Y724500D01*
X566841Y723520D01*
X567219Y722606D01*
X567821Y721821D01*
X568606Y721219D01*
X569520Y720841D01*
X570500Y720712D01*
X571481Y720841D01*
X572394Y721219D01*
X573179Y721821D01*
X573781Y722606D01*
X574159Y723520D01*
X574288Y724500D01*
X574159Y725481D01*
X573781Y726394D01*
X573179Y727179D01*
X572394Y727781D01*
X571481Y728159D01*
X570500Y728288D01*
D02*
G37*
G36*
X524000Y727076D02*
X523122Y726961D01*
X522304Y726622D01*
X521602Y726083D01*
X521063Y725381D01*
X520724Y724563D01*
X520609Y723685D01*
X520724Y722807D01*
X521063Y721989D01*
X521602Y721287D01*
X522304Y720748D01*
X523122Y720409D01*
X524000Y720294D01*
X524878Y720409D01*
X525696Y720748D01*
X526398Y721287D01*
X526937Y721989D01*
X527276Y722807D01*
X527391Y723685D01*
X527276Y724563D01*
X526937Y725381D01*
X526398Y726083D01*
X525696Y726622D01*
X524878Y726961D01*
X524000Y727076D01*
D02*
G37*
G36*
X496222Y723500D02*
X493000D01*
Y720278D01*
X493480Y720341D01*
X494394Y720719D01*
X495179Y721321D01*
X495781Y722106D01*
X496159Y723020D01*
X496222Y723500D01*
D02*
G37*
G36*
X492000D02*
X488777D01*
X488841Y723020D01*
X489219Y722106D01*
X489821Y721321D01*
X490606Y720719D01*
X491519Y720341D01*
X492000Y720278D01*
Y723500D01*
D02*
G37*
G36*
X462500Y727788D02*
X461519Y727659D01*
X460606Y727281D01*
X459821Y726679D01*
X459219Y725894D01*
X458841Y724980D01*
X458712Y724000D01*
X458841Y723020D01*
X459219Y722106D01*
X459821Y721321D01*
X460606Y720719D01*
X461519Y720341D01*
X462500Y720212D01*
X463481Y720341D01*
X464394Y720719D01*
X465179Y721321D01*
X465781Y722106D01*
X466159Y723020D01*
X466288Y724000D01*
X466159Y724980D01*
X465781Y725894D01*
X465179Y726679D01*
X464394Y727281D01*
X463481Y727659D01*
X462500Y727788D01*
D02*
G37*
G36*
X539000Y726891D02*
X538122Y726776D01*
X537304Y726437D01*
X536602Y725898D01*
X536063Y725196D01*
X535724Y724378D01*
X535609Y723500D01*
X535724Y722622D01*
X536063Y721804D01*
X536602Y721102D01*
X537304Y720563D01*
X538122Y720224D01*
X539000Y720109D01*
X539878Y720224D01*
X540696Y720563D01*
X541398Y721102D01*
X541937Y721804D01*
X542276Y722622D01*
X542391Y723500D01*
X542276Y724378D01*
X541937Y725196D01*
X541398Y725898D01*
X540696Y726437D01*
X539878Y726776D01*
X539000Y726891D01*
D02*
G37*
G36*
X493000Y715723D02*
Y712500D01*
X496222D01*
X496159Y712981D01*
X495781Y713894D01*
X495179Y714679D01*
X494394Y715281D01*
X493480Y715659D01*
X493000Y715723D01*
D02*
G37*
G36*
X571000D02*
Y712500D01*
X574223D01*
X574159Y712981D01*
X573781Y713894D01*
X573179Y714679D01*
X572394Y715281D01*
X571481Y715659D01*
X571000Y715723D01*
D02*
G37*
G36*
X570000D02*
X569520Y715659D01*
X568606Y715281D01*
X567821Y714679D01*
X567219Y713894D01*
X566841Y712981D01*
X566778Y712500D01*
X570000D01*
Y715723D01*
D02*
G37*
G36*
X492000D02*
X491519Y715659D01*
X490606Y715281D01*
X489821Y714679D01*
X489219Y713894D01*
X488841Y712981D01*
X488777Y712500D01*
X492000D01*
Y715723D01*
D02*
G37*
G36*
X496222Y711500D02*
X493000D01*
Y708278D01*
X493480Y708341D01*
X494394Y708719D01*
X495179Y709321D01*
X495781Y710106D01*
X496159Y711020D01*
X496222Y711500D01*
D02*
G37*
G36*
X574223D02*
X571000D01*
Y708278D01*
X571481Y708341D01*
X572394Y708719D01*
X573179Y709321D01*
X573781Y710106D01*
X574159Y711020D01*
X574223Y711500D01*
D02*
G37*
G36*
X570000D02*
X566778D01*
X566841Y711020D01*
X567219Y710106D01*
X567821Y709321D01*
X568606Y708719D01*
X569520Y708341D01*
X570000Y708278D01*
Y711500D01*
D02*
G37*
G36*
X492000D02*
X488777D01*
X488841Y711020D01*
X489219Y710106D01*
X489821Y709321D01*
X490606Y708719D01*
X491519Y708341D01*
X492000Y708278D01*
Y711500D01*
D02*
G37*
G36*
X600500Y715788D02*
X599519Y715659D01*
X598606Y715281D01*
X597821Y714679D01*
X597219Y713894D01*
X596841Y712981D01*
X596712Y712000D01*
X596841Y711020D01*
X597219Y710106D01*
X597821Y709321D01*
X598606Y708719D01*
X599519Y708341D01*
X600500Y708212D01*
X601480Y708341D01*
X602394Y708719D01*
X603179Y709321D01*
X603781Y710106D01*
X604159Y711020D01*
X604288Y712000D01*
X604159Y712981D01*
X603781Y713894D01*
X603179Y714679D01*
X602394Y715281D01*
X601480Y715659D01*
X600500Y715788D01*
D02*
G37*
G36*
X462500D02*
X461519Y715659D01*
X460606Y715281D01*
X459821Y714679D01*
X459219Y713894D01*
X458841Y712981D01*
X458712Y712000D01*
X458841Y711020D01*
X459219Y710106D01*
X459821Y709321D01*
X460606Y708719D01*
X461519Y708341D01*
X462500Y708212D01*
X463481Y708341D01*
X464394Y708719D01*
X465179Y709321D01*
X465781Y710106D01*
X466159Y711020D01*
X466288Y712000D01*
X466159Y712981D01*
X465781Y713894D01*
X465179Y714679D01*
X464394Y715281D01*
X463481Y715659D01*
X462500Y715788D01*
D02*
G37*
G36*
X529500Y714530D02*
X528586Y714410D01*
X527735Y714057D01*
X527004Y713496D01*
X526443Y712765D01*
X526090Y711914D01*
X525970Y711000D01*
X526090Y710086D01*
X526443Y709235D01*
X526549Y709097D01*
X526449Y708948D01*
X526333Y708362D01*
Y707013D01*
X525884Y706792D01*
X525696Y706937D01*
X524878Y707276D01*
X524000Y707391D01*
X523122Y707276D01*
X522304Y706937D01*
X521602Y706398D01*
X521063Y705696D01*
X520724Y704878D01*
X520609Y704000D01*
X520724Y703122D01*
X521063Y702304D01*
X521602Y701602D01*
X522304Y701063D01*
X523122Y700724D01*
X524000Y700609D01*
X524878Y700724D01*
X525696Y701063D01*
X525884Y701208D01*
X526333Y700987D01*
Y699496D01*
X523919Y697081D01*
X523587Y696585D01*
X523471Y696000D01*
Y694155D01*
X523235Y694057D01*
X522504Y693496D01*
X521943Y692765D01*
X521590Y691914D01*
X521470Y691000D01*
X521590Y690086D01*
X521943Y689235D01*
X522504Y688504D01*
X523235Y687943D01*
X524086Y687590D01*
X524786Y687498D01*
X524841Y687387D01*
X524896Y686979D01*
X524383Y686586D01*
X523907Y685966D01*
X523608Y685243D01*
X523506Y684469D01*
Y680532D01*
X523608Y679757D01*
X523907Y679034D01*
X524383Y678414D01*
X525003Y677939D01*
X525725Y677639D01*
X526500Y677537D01*
X527275Y677639D01*
X527997Y677939D01*
X528617Y678414D01*
X528750Y678587D01*
X529250D01*
X529383Y678414D01*
X530003Y677939D01*
X530725Y677639D01*
X531500Y677537D01*
X532275Y677639D01*
X532997Y677939D01*
X533617Y678414D01*
X533750Y678587D01*
X534250D01*
X534383Y678414D01*
X535003Y677939D01*
X535725Y677639D01*
X536500Y677537D01*
X537275Y677639D01*
X537997Y677939D01*
X538617Y678414D01*
X539093Y679034D01*
X539392Y679756D01*
X539494Y680532D01*
Y684469D01*
X539392Y685244D01*
X539093Y685966D01*
X538617Y686586D01*
X537997Y687062D01*
X537275Y687361D01*
X536500Y687463D01*
X535725Y687361D01*
X535003Y687062D01*
X534383Y686586D01*
X534250Y686413D01*
X533750D01*
X533617Y686586D01*
X532997Y687062D01*
X532275Y687361D01*
X531500Y687463D01*
X530725Y687361D01*
X530003Y687062D01*
X529383Y686586D01*
X529250Y686413D01*
X528750D01*
X528617Y686586D01*
X527997Y687062D01*
X527275Y687361D01*
X526813Y687421D01*
X526746Y687935D01*
X526765Y687943D01*
X527496Y688504D01*
X528057Y689235D01*
X528410Y690086D01*
X528530Y691000D01*
X528410Y691914D01*
X528057Y692765D01*
X527496Y693496D01*
X526765Y694057D01*
X526529Y694155D01*
Y695366D01*
X528944Y697781D01*
X529275Y698277D01*
X529392Y698862D01*
Y707375D01*
X529500Y707470D01*
X530414Y707590D01*
X531265Y707943D01*
X531996Y708504D01*
X532557Y709235D01*
X532910Y710086D01*
X533030Y711000D01*
X532910Y711914D01*
X532557Y712765D01*
X531996Y713496D01*
X531265Y714057D01*
X530414Y714410D01*
X529500Y714530D01*
D02*
G37*
G36*
X605685Y706454D02*
Y701976D01*
X610162D01*
X610056Y702782D01*
X609552Y703998D01*
X608751Y705042D01*
X607707Y705844D01*
X606490Y706348D01*
X605685Y706454D01*
D02*
G37*
G36*
X604685D02*
X603880Y706348D01*
X602663Y705844D01*
X601619Y705042D01*
X600817Y703998D01*
X600314Y702782D01*
X600208Y701976D01*
X604685D01*
Y706454D01*
D02*
G37*
G36*
X539000Y707206D02*
X538122Y707091D01*
X537304Y706752D01*
X536602Y706213D01*
X536063Y705511D01*
X535724Y704693D01*
X535609Y703815D01*
X535724Y702937D01*
X536063Y702119D01*
X536602Y701417D01*
X537304Y700878D01*
X538122Y700539D01*
X539000Y700424D01*
X539878Y700539D01*
X540696Y700878D01*
X541398Y701417D01*
X541937Y702119D01*
X542276Y702937D01*
X542391Y703815D01*
X542276Y704693D01*
X541937Y705511D01*
X541398Y706213D01*
X540696Y706752D01*
X539878Y707091D01*
X539000Y707206D01*
D02*
G37*
G36*
X610162Y700976D02*
X605685D01*
Y696499D01*
X606490Y696605D01*
X607707Y697109D01*
X608751Y697910D01*
X609552Y698955D01*
X610056Y700171D01*
X610162Y700976D01*
D02*
G37*
G36*
X604685D02*
X600208D01*
X600314Y700171D01*
X600817Y698955D01*
X601619Y697910D01*
X602663Y697109D01*
X603880Y696605D01*
X604685Y696499D01*
Y700976D01*
D02*
G37*
G36*
X585500Y706520D02*
X584195Y706348D01*
X582978Y705844D01*
X581934Y705042D01*
X581133Y703998D01*
X580629Y702782D01*
X580457Y701476D01*
X580629Y700171D01*
X581133Y698955D01*
X581934Y697910D01*
X582978Y697109D01*
X584195Y696605D01*
X585500Y696433D01*
X586805Y696605D01*
X588022Y697109D01*
X589066Y697910D01*
X589867Y698955D01*
X590371Y700171D01*
X590543Y701476D01*
X590371Y702782D01*
X589867Y703998D01*
X589066Y705042D01*
X588022Y705844D01*
X586805Y706348D01*
X585500Y706520D01*
D02*
G37*
G36*
X565815D02*
X564510Y706348D01*
X563293Y705844D01*
X562249Y705042D01*
X561447Y703998D01*
X560944Y702782D01*
X560772Y701476D01*
X560944Y700171D01*
X561447Y698955D01*
X562249Y697910D01*
X563293Y697109D01*
X564510Y696605D01*
X565815Y696433D01*
X567120Y696605D01*
X568337Y697109D01*
X569381Y697910D01*
X570183Y698955D01*
X570686Y700171D01*
X570858Y701476D01*
X570686Y702782D01*
X570183Y703998D01*
X569381Y705042D01*
X568337Y705844D01*
X567120Y706348D01*
X565815Y706520D01*
D02*
G37*
G36*
X497185D02*
X495880Y706348D01*
X494663Y705844D01*
X493619Y705042D01*
X492817Y703998D01*
X492314Y702782D01*
X492142Y701476D01*
X492314Y700171D01*
X492817Y698955D01*
X493619Y697910D01*
X494663Y697109D01*
X495880Y696605D01*
X497185Y696433D01*
X498490Y696605D01*
X499707Y697109D01*
X500751Y697910D01*
X501552Y698955D01*
X502056Y700171D01*
X502228Y701476D01*
X502056Y702782D01*
X501552Y703998D01*
X500751Y705042D01*
X499707Y705844D01*
X498490Y706348D01*
X497185Y706520D01*
D02*
G37*
G36*
X477500D02*
X476195Y706348D01*
X474978Y705844D01*
X473934Y705042D01*
X473133Y703998D01*
X472629Y702782D01*
X472457Y701476D01*
X472629Y700171D01*
X473133Y698955D01*
X473934Y697910D01*
X474978Y697109D01*
X476195Y696605D01*
X477500Y696433D01*
X478805Y696605D01*
X480022Y697109D01*
X481066Y697910D01*
X481868Y698955D01*
X482371Y700171D01*
X482543Y701476D01*
X482371Y702782D01*
X481868Y703998D01*
X481066Y705042D01*
X480022Y705844D01*
X478805Y706348D01*
X477500Y706520D01*
D02*
G37*
G36*
X457815D02*
X456510Y706348D01*
X455293Y705844D01*
X454249Y705042D01*
X453447Y703998D01*
X452944Y702782D01*
X452772Y701476D01*
X452944Y700171D01*
X453447Y698955D01*
X454249Y697910D01*
X455293Y697109D01*
X456510Y696605D01*
X457815Y696433D01*
X459120Y696605D01*
X460337Y697109D01*
X461381Y697910D01*
X462183Y698955D01*
X462686Y700171D01*
X462858Y701476D01*
X462686Y702782D01*
X462183Y703998D01*
X461381Y705042D01*
X460337Y705844D01*
X459120Y706348D01*
X457815Y706520D01*
D02*
G37*
G36*
X600500Y693788D02*
X599519Y693659D01*
X598606Y693281D01*
X597821Y692679D01*
X597219Y691894D01*
X596841Y690980D01*
X596712Y690000D01*
X596841Y689019D01*
X597219Y688106D01*
X597821Y687321D01*
X598606Y686719D01*
X599519Y686341D01*
X600500Y686212D01*
X601480Y686341D01*
X602394Y686719D01*
X603179Y687321D01*
X603781Y688106D01*
X604159Y689019D01*
X604288Y690000D01*
X604159Y690980D01*
X603781Y691894D01*
X603179Y692679D01*
X602394Y693281D01*
X601480Y693659D01*
X600500Y693788D01*
D02*
G37*
G36*
X570500D02*
X569520Y693659D01*
X568606Y693281D01*
X567821Y692679D01*
X567219Y691894D01*
X566841Y690980D01*
X566712Y690000D01*
X566841Y689019D01*
X567219Y688106D01*
X567821Y687321D01*
X568606Y686719D01*
X569520Y686341D01*
X570500Y686212D01*
X571481Y686341D01*
X572394Y686719D01*
X573179Y687321D01*
X573781Y688106D01*
X574159Y689019D01*
X574288Y690000D01*
X574159Y690980D01*
X573781Y691894D01*
X573179Y692679D01*
X572394Y693281D01*
X571481Y693659D01*
X570500Y693788D01*
D02*
G37*
G36*
X495429Y693953D02*
X487524D01*
Y686047D01*
X495429D01*
Y693953D01*
D02*
G37*
G36*
X463524Y693987D02*
X462492Y693851D01*
X461530Y693453D01*
X460705Y692819D01*
X460071Y691993D01*
X459673Y691032D01*
X459537Y690000D01*
X459673Y688968D01*
X460071Y688007D01*
X460705Y687181D01*
X461530Y686547D01*
X462492Y686149D01*
X463524Y686013D01*
X464556Y686149D01*
X465517Y686547D01*
X466343Y687181D01*
X466976Y688007D01*
X467375Y688968D01*
X467511Y690000D01*
X467375Y691032D01*
X466976Y691993D01*
X466343Y692819D01*
X465517Y693453D01*
X464556Y693851D01*
X463524Y693987D01*
D02*
G37*
G36*
X559657Y689157D02*
X552343D01*
Y681843D01*
X559657D01*
Y689157D01*
D02*
G37*
G36*
X510658Y689000D02*
X503342D01*
Y681685D01*
X510658D01*
Y689000D01*
D02*
G37*
G36*
X453000Y682973D02*
Y679000D01*
X456973D01*
X456884Y679675D01*
X456431Y680769D01*
X455709Y681709D01*
X454769Y682431D01*
X453675Y682884D01*
X453000Y682973D01*
D02*
G37*
G36*
X452000D02*
X451325Y682884D01*
X450231Y682431D01*
X449291Y681709D01*
X448569Y680769D01*
X448116Y679675D01*
X448027Y679000D01*
X452000D01*
Y682973D01*
D02*
G37*
G36*
X556500Y679123D02*
Y676000D01*
X559623D01*
X559563Y676455D01*
X559195Y677345D01*
X558609Y678109D01*
X557844Y678695D01*
X556955Y679063D01*
X556500Y679123D01*
D02*
G37*
G36*
X555500D02*
X555045Y679063D01*
X554155Y678695D01*
X553391Y678109D01*
X552805Y677345D01*
X552437Y676455D01*
X552377Y676000D01*
X555500D01*
Y679123D01*
D02*
G37*
G36*
X507500Y678966D02*
Y675843D01*
X510623D01*
X510563Y676297D01*
X510195Y677187D01*
X509609Y677951D01*
X508845Y678537D01*
X507955Y678906D01*
X507500Y678966D01*
D02*
G37*
G36*
X506500Y678966D02*
X506045Y678906D01*
X505156Y678537D01*
X504391Y677951D01*
X503805Y677187D01*
X503437Y676297D01*
X503377Y675843D01*
X506500D01*
Y678966D01*
D02*
G37*
G36*
X456973Y678000D02*
X453000D01*
Y674027D01*
X453675Y674116D01*
X454769Y674569D01*
X455709Y675291D01*
X456431Y676231D01*
X456884Y677325D01*
X456973Y678000D01*
D02*
G37*
G36*
X452000D02*
X448027D01*
X448116Y677325D01*
X448569Y676231D01*
X449291Y675291D01*
X450231Y674569D01*
X451325Y674116D01*
X452000Y674027D01*
Y678000D01*
D02*
G37*
G36*
X463500Y681039D02*
X462325Y680884D01*
X461231Y680431D01*
X460291Y679709D01*
X459569Y678769D01*
X459116Y677675D01*
X458961Y676500D01*
X459116Y675325D01*
X459569Y674231D01*
X460291Y673291D01*
X461231Y672569D01*
X462325Y672116D01*
X463500Y671961D01*
X464675Y672116D01*
X465769Y672569D01*
X466709Y673291D01*
X467431Y674231D01*
X467884Y675325D01*
X468039Y676500D01*
X467884Y677675D01*
X467431Y678769D01*
X466709Y679709D01*
X465769Y680431D01*
X464675Y680884D01*
X463500Y681039D01*
D02*
G37*
G36*
X559623Y675000D02*
X556500D01*
Y671877D01*
X556955Y671937D01*
X557844Y672305D01*
X558609Y672891D01*
X559195Y673656D01*
X559563Y674545D01*
X559623Y675000D01*
D02*
G37*
G36*
X555500D02*
X552377D01*
X552437Y674545D01*
X552805Y673656D01*
X553391Y672891D01*
X554155Y672305D01*
X555045Y671937D01*
X555500Y671877D01*
Y675000D01*
D02*
G37*
G36*
X506500Y674843D02*
X503377D01*
X503437Y674388D01*
X503805Y673498D01*
X504391Y672734D01*
X505156Y672148D01*
X506045Y671779D01*
X506500Y671719D01*
Y674843D01*
D02*
G37*
G36*
X510623D02*
X507500D01*
Y671719D01*
X507955Y671779D01*
X508845Y672148D01*
X509609Y672734D01*
X510195Y673498D01*
X510563Y674388D01*
X510623Y674843D01*
D02*
G37*
G36*
X595500Y673473D02*
Y669500D01*
X599473D01*
X599384Y670175D01*
X598931Y671269D01*
X598209Y672209D01*
X597269Y672931D01*
X596175Y673384D01*
X595500Y673473D01*
D02*
G37*
G36*
X594500D02*
X593825Y673384D01*
X592731Y672931D01*
X591791Y672209D01*
X591069Y671269D01*
X590616Y670175D01*
X590527Y669500D01*
X594500D01*
Y673473D01*
D02*
G37*
G36*
X474000Y678539D02*
X472825Y678384D01*
X471731Y677931D01*
X470791Y677209D01*
X470069Y676269D01*
X469616Y675175D01*
X469461Y674000D01*
X469616Y672825D01*
X470069Y671731D01*
X470791Y670791D01*
X471731Y670069D01*
X472825Y669616D01*
X474000Y669461D01*
X475175Y669616D01*
X476269Y670069D01*
X477209Y670791D01*
X477931Y671731D01*
X478384Y672825D01*
X478539Y674000D01*
X478384Y675175D01*
X477931Y676269D01*
X477209Y677209D01*
X476269Y677931D01*
X475175Y678384D01*
X474000Y678539D01*
D02*
G37*
G36*
X605500Y677039D02*
X604325Y676884D01*
X603231Y676431D01*
X602291Y675709D01*
X601569Y674769D01*
X601116Y673675D01*
X600961Y672500D01*
X601116Y671325D01*
X601569Y670231D01*
X602291Y669291D01*
X603231Y668569D01*
X604325Y668116D01*
X605500Y667961D01*
X606675Y668116D01*
X607769Y668569D01*
X608709Y669291D01*
X609431Y670231D01*
X609884Y671325D01*
X610039Y672500D01*
X609884Y673675D01*
X609431Y674769D01*
X608709Y675709D01*
X607769Y676431D01*
X606675Y676884D01*
X605500Y677039D01*
D02*
G37*
G36*
X599473Y668500D02*
X595500D01*
Y664527D01*
X596175Y664616D01*
X597269Y665069D01*
X598209Y665791D01*
X598931Y666731D01*
X599384Y667825D01*
X599473Y668500D01*
D02*
G37*
G36*
X594500D02*
X590527D01*
X590616Y667825D01*
X591069Y666731D01*
X591791Y665791D01*
X592731Y665069D01*
X593825Y664616D01*
X594500Y664527D01*
Y668500D01*
D02*
G37*
%LPD*%
D12*
X529500Y710000D02*
Y711000D01*
X527862Y708362D02*
X529500Y710000D01*
X527862Y698862D02*
Y708362D01*
X525000Y691000D02*
Y696000D01*
X527862Y698862D01*
D28*
X462500Y724000D02*
D03*
X492500D02*
D03*
X600500Y690000D02*
D03*
X570500D02*
D03*
X600500Y712000D02*
D03*
X570500D02*
D03*
Y724500D02*
D03*
X600500D02*
D03*
X462500Y712000D02*
D03*
X492500D02*
D03*
D29*
X536500Y682500D02*
D03*
X531500D02*
D03*
D30*
X526500D02*
D03*
D31*
X491476Y690000D02*
D03*
D32*
X463524D02*
D03*
D33*
X556000Y675500D02*
D03*
X507000Y675343D02*
D03*
D34*
X556000Y685500D02*
D03*
X507000Y685343D02*
D03*
D35*
X524000Y723685D02*
D03*
Y704000D02*
D03*
X539000Y723500D02*
D03*
Y703815D02*
D03*
D36*
X605500Y672500D02*
D03*
X595000Y669000D02*
D03*
X474000Y674000D02*
D03*
X463500Y676500D02*
D03*
X452500Y678500D02*
D03*
D37*
X457815Y701476D02*
D03*
X497185D02*
D03*
X477500D02*
D03*
D03*
X565815D02*
D03*
X605185D02*
D03*
X585500D02*
D03*
D03*
D38*
X529500Y711000D02*
D03*
X525000Y691000D02*
D03*
M02*
