G04*
G04 #@! TF.GenerationSoftware,Altium Limited,Altium Designer,18.0.11 (651)*
G04*
G04 Layer_Color=128*
%FSLAX25Y25*%
%MOIN*%
G70*
G01*
G75*
%ADD39C,0.00200*%
D39*
X460827Y724000D02*
X464173D01*
X462500Y722327D02*
Y725673D01*
X490827Y724000D02*
X494173D01*
X492500Y722327D02*
Y725673D01*
X598827Y690000D02*
X602173D01*
X600500Y688327D02*
Y691673D01*
X568827Y690000D02*
X572173D01*
X570500Y688327D02*
Y691673D01*
X598827Y712000D02*
X602173D01*
X600500Y710327D02*
Y713673D01*
X568827Y712000D02*
X572173D01*
X570500Y710327D02*
Y713673D01*
X568827Y724500D02*
X572173D01*
X570500Y722827D02*
Y726173D01*
X598827Y724500D02*
X602173D01*
X600500Y722827D02*
Y726173D01*
X460827Y712000D02*
X464173D01*
X462500Y710327D02*
Y713673D01*
X490827Y712000D02*
X494173D01*
X492500Y710327D02*
Y713673D01*
X534728Y682500D02*
X538272D01*
X536500Y680728D02*
Y684272D01*
X529728Y682500D02*
X533272D01*
X531500Y680728D02*
Y684272D01*
X524728Y682500D02*
X528272D01*
X526500Y680728D02*
Y684272D01*
X489705Y690000D02*
X493248D01*
X491476Y688228D02*
Y691772D01*
X461752Y690000D02*
X465295D01*
X463524Y688228D02*
Y691772D01*
X554425Y675500D02*
X557575D01*
X556000Y673925D02*
Y677075D01*
X554425Y685500D02*
X557575D01*
X556000Y683925D02*
Y687075D01*
X522622Y723685D02*
X525378D01*
X524000Y722307D02*
Y725063D01*
X522622Y704000D02*
X525378D01*
X524000Y702622D02*
Y705378D01*
X537622Y723500D02*
X540378D01*
X539000Y722122D02*
Y724878D01*
X537622Y703815D02*
X540378D01*
X539000Y702437D02*
Y705193D01*
X505425Y675343D02*
X508575D01*
X507000Y673768D02*
Y676917D01*
X505425Y685343D02*
X508575D01*
X507000Y683768D02*
Y686917D01*
X603532Y672500D02*
X607469D01*
X605500Y670532D02*
Y674469D01*
X455315Y701476D02*
X460315D01*
X457815Y698976D02*
Y703976D01*
X494685Y701476D02*
X499685D01*
X497185Y698976D02*
Y703976D01*
X475000Y701476D02*
X480000D01*
X477500Y698976D02*
Y703976D01*
X475000Y701476D02*
X480000D01*
X477500Y698976D02*
Y703976D01*
X474000Y762500D02*
X481000D01*
X477500Y759000D02*
Y766000D01*
X563315Y701476D02*
X568315D01*
X565815Y698976D02*
Y703976D01*
X602685Y701476D02*
X607685D01*
X605185Y698976D02*
Y703976D01*
X583000Y701476D02*
X588000D01*
X585500Y698976D02*
Y703976D01*
X583000Y701476D02*
X588000D01*
X585500Y698976D02*
Y703976D01*
X582000Y762500D02*
X589000D01*
X585500Y759000D02*
Y766000D01*
X593032Y669000D02*
X596969D01*
X595000Y667031D02*
Y670968D01*
X472031Y674000D02*
X475969D01*
X474000Y672031D02*
Y675969D01*
X461531Y676500D02*
X465469D01*
X463500Y674532D02*
Y678469D01*
X450531Y678500D02*
X454468D01*
X452500Y676532D02*
Y680469D01*
X528100Y711000D02*
X530900D01*
X529500Y709600D02*
Y712400D01*
X523600Y691000D02*
X526400D01*
X525000Y689600D02*
Y692400D01*
M02*
