G04*
G04 #@! TF.GenerationSoftware,Altium Limited,Altium Designer,18.0.11 (651)*
G04*
G04 Layer_Color=2752767*
%FSLAX25Y25*%
%MOIN*%
G70*
G01*
G75*
%ADD39C,0.00200*%
%ADD40C,0.00267*%
D39*
X461700Y723200D02*
Y724800D01*
X463300D01*
Y723200D01*
X461700D01*
X491700D02*
Y724800D01*
X493300D01*
Y723200D01*
X491700D01*
X599700Y689200D02*
Y690800D01*
X601300D01*
Y689200D01*
X599700D01*
X569700D02*
Y690800D01*
X571300D01*
Y689200D01*
X569700D01*
X599700Y711200D02*
Y712800D01*
X601300D01*
Y711200D01*
X599700D01*
X569700D02*
Y712800D01*
X571300D01*
Y711200D01*
X569700D01*
Y723700D02*
Y725300D01*
X571300D01*
Y723700D01*
X569700D01*
X599700D02*
Y725300D01*
X601300D01*
Y723700D01*
X599700D01*
X461700Y711200D02*
Y712800D01*
X463300D01*
Y711200D01*
X461700D01*
X491700D02*
Y712800D01*
X493300D01*
Y711200D01*
X491700D01*
X556000Y674700D02*
X555200Y676300D01*
X556800D01*
X556000Y674700D01*
Y684700D02*
X555200Y686300D01*
X556800D01*
X556000Y684700D01*
X524000Y722885D02*
X524400Y723285D01*
X524800D01*
X524400Y723685D01*
X524800Y724085D01*
X524400D01*
X524000Y724485D01*
X523600Y724085D01*
X523200D01*
X523600Y723685D01*
X523200Y723285D01*
X523600D01*
X524000Y722885D01*
Y703200D02*
X524400Y703600D01*
X524800D01*
X524400Y704000D01*
X524800Y704400D01*
X524400D01*
X524000Y704800D01*
X523600Y704400D01*
X523200D01*
X523600Y704000D01*
X523200Y703600D01*
X523600D01*
X524000Y703200D01*
X539000Y722700D02*
X539400Y723100D01*
X539800D01*
X539400Y723500D01*
X539800Y723900D01*
X539400D01*
X539000Y724300D01*
X538600Y723900D01*
X538200D01*
X538600Y723500D01*
X538200Y723100D01*
X538600D01*
X539000Y722700D01*
Y703015D02*
X539400Y703415D01*
X539800D01*
X539400Y703815D01*
X539800Y704215D01*
X539400D01*
X539000Y704615D01*
X538600Y704215D01*
X538200D01*
X538600Y703815D01*
X538200Y703415D01*
X538600D01*
X539000Y703015D01*
X507000Y674543D02*
X506200Y676143D01*
X507800D01*
X507000Y674543D01*
Y684543D02*
X506200Y686142D01*
X507800D01*
X507000Y684543D01*
X604700Y671700D02*
X605100Y672500D01*
X604700Y673300D01*
X605500Y672900D01*
X606300Y673300D01*
X605900Y672500D01*
X606300Y671700D01*
X605500Y672100D01*
X604700Y671700D01*
X457415Y701076D02*
Y700676D01*
X458215D01*
Y701076D01*
X458615D01*
Y701876D01*
X458215D01*
Y702276D01*
X457415D01*
Y701876D01*
X457015D01*
Y701076D01*
X457415D01*
X496785D02*
Y700676D01*
X497585D01*
Y701076D01*
X497985D01*
Y701876D01*
X497585D01*
Y702276D01*
X496785D01*
Y701876D01*
X496385D01*
Y701076D01*
X496785D01*
X477100D02*
Y700676D01*
X477900D01*
Y701076D01*
X478300D01*
Y701876D01*
X477900D01*
Y702276D01*
X477100D01*
Y701876D01*
X476700D01*
Y701076D01*
X477100D01*
Y700676D01*
X477900D01*
Y701076D01*
X478300D01*
Y701876D01*
X477900D01*
Y702276D01*
X477100D01*
Y701876D01*
X476700D01*
Y701076D01*
X477100D01*
X476700Y761700D02*
X477100D01*
X477500Y762100D01*
X477900Y761700D01*
X478300D01*
Y762100D01*
X477900Y762500D01*
X478300Y762900D01*
Y763300D01*
X477900D01*
X477500Y762900D01*
X477100Y763300D01*
X476700D01*
Y762900D01*
X477100Y762500D01*
X476700Y762100D01*
Y761700D01*
X565415Y701076D02*
Y700676D01*
X566215D01*
Y701076D01*
X566615D01*
Y701876D01*
X566215D01*
Y702276D01*
X565415D01*
Y701876D01*
X565015D01*
Y701076D01*
X565415D01*
X604785D02*
Y700676D01*
X605585D01*
Y701076D01*
X605985D01*
Y701876D01*
X605585D01*
Y702276D01*
X604785D01*
Y701876D01*
X604385D01*
Y701076D01*
X604785D01*
X585100D02*
Y700676D01*
X585900D01*
Y701076D01*
X586300D01*
Y701876D01*
X585900D01*
Y702276D01*
X585100D01*
Y701876D01*
X584700D01*
Y701076D01*
X585100D01*
Y700676D01*
X585900D01*
Y701076D01*
X586300D01*
Y701876D01*
X585900D01*
Y702276D01*
X585100D01*
Y701876D01*
X584700D01*
Y701076D01*
X585100D01*
X584700Y761700D02*
X585100D01*
X585500Y762100D01*
X585900Y761700D01*
X586300D01*
Y762100D01*
X585900Y762500D01*
X586300Y762900D01*
Y763300D01*
X585900D01*
X585500Y762900D01*
X585100Y763300D01*
X584700D01*
Y762900D01*
X585100Y762500D01*
X584700Y762100D01*
Y761700D01*
X594200Y668200D02*
X594600Y669000D01*
X594200Y669800D01*
X595000Y669400D01*
X595800Y669800D01*
X595400Y669000D01*
X595800Y668200D01*
X595000Y668600D01*
X594200Y668200D01*
X473200Y673200D02*
X473600Y674000D01*
X473200Y674800D01*
X474000Y674400D01*
X474800Y674800D01*
X474400Y674000D01*
X474800Y673200D01*
X474000Y673600D01*
X473200Y673200D01*
X462700Y675700D02*
X463100Y676500D01*
X462700Y677300D01*
X463500Y676900D01*
X464300Y677300D01*
X463900Y676500D01*
X464300Y675700D01*
X463500Y676100D01*
X462700Y675700D01*
X451700Y677700D02*
X452100Y678500D01*
X451700Y679300D01*
X452500Y678900D01*
X453300Y679300D01*
X452900Y678500D01*
X453300Y677700D01*
X452500Y678100D01*
X451700Y677700D01*
X528700Y711000D02*
X529500Y711800D01*
X530300Y711000D01*
X529500Y710200D01*
X528700Y711000D01*
X524200Y691000D02*
X525000Y691800D01*
X525800Y691000D01*
X525000Y690200D01*
X524200Y691000D01*
D40*
X537300Y682500D02*
G03*
X537300Y682500I-800J0D01*
G01*
X532300D02*
G03*
X532300Y682500I-800J0D01*
G01*
X527300D02*
G03*
X527300Y682500I-800J0D01*
G01*
X492276Y690000D02*
G03*
X492276Y690000I-800J0D01*
G01*
X464324D02*
G03*
X464324Y690000I-800J0D01*
G01*
M02*
